# File created by Blade
# Date/Time:  Wed Sep 24 19:25:39 2014
# Frame Rate: 120.000 fps
#------------------------------------------------------
:FULLY-SPECIFIED
:DEGREES
664
root -16.002989 33.369034 -2.537086 16.931052 -15.931631 11.662765
Spine -25.309880 11.978353 -11.676207
Head 15.442396 -1.052180 6.165541
LeftShoulder -15.346480 28.853440 9.408378
LeftArm 14.247731 28.865173 -75.980222
LeftForeArm 1.005300 -0.000000 29.038619
LeftHand -25.492409 -0.000000 -2.356291
LeftHandThumb1 -26.253704 0.000000 33.147579
RightShoulder -19.283137 5.747431 -17.712659
RightArm -14.548981 -29.602794 90.074724
RightForeArm -16.686617 0.000000 57.835751
RightHand 1.618841 -0.000000 -31.998050
RightHandThumb1 -24.326973 -0.000000 -32.862282
LeftUpLeg -0.264498 1.477699 1.491403
LeftLeg 8.716185 -0.000000 -0.000000
LeftFoot 41.290083 6.397608 -16.238556
LeftToeBase 38.286397 -0.000000 -0.000000
RightUpLeg -13.811100 1.599725 -6.419928
RightLeg 1.335162 -0.000000 -0.000000
RightFoot -8.883389 2.555154 -9.305508
RightToeBase -3.618437 -0.000000 0.000000
665
root -15.996183 33.366952 -2.539175 16.999991 -15.857801 11.680026
Spine -25.423436 11.926993 -11.667805
Head 15.429423 -1.056397 6.122141
LeftShoulder -15.360978 28.862023 9.364920
LeftArm 14.226348 28.718783 -76.017417
LeftForeArm 0.852614 -0.000000 28.774945
LeftHand -25.569350 -0.000000 -2.483737
LeftHandThumb1 -26.253704 0.000000 33.147579
RightShoulder -19.291244 5.731286 -17.736625
RightArm -14.594919 -29.504047 90.105266
RightForeArm -16.701895 -0.000000 57.849234
RightHand 1.609488 -0.000000 -32.016231
RightHandThumb1 -24.326973 -0.000000 -32.862282
LeftUpLeg -0.308649 1.359159 1.502386
LeftLeg 8.656698 -0.000000 -0.000000
LeftFoot 41.323437 6.425206 -16.400797
LeftToeBase 37.710596 -0.000000 -0.000000
RightUpLeg -13.836088 1.495924 -6.428257
RightLeg 1.254722 -0.000000 -0.000000
RightFoot -8.884226 2.608962 -9.303329
RightToeBase -3.643907 -0.000000 0.000000
666
root -15.997588 33.365081 -2.545910 17.067684 -15.789055 11.651655
Spine -25.511521 11.914502 -11.642828
Head 15.398205 -1.086192 6.114636
LeftShoulder -15.336014 28.844046 9.357149
LeftArm 14.215716 28.597608 -76.041816
LeftForeArm 0.753827 -0.000000 28.541469
LeftHand -25.591657 -0.000000 -2.563868
LeftHandThumb1 -26.253704 0.000000 33.147579
RightShoulder -19.298809 5.718494 -17.731158
RightArm -14.638847 -29.335135 90.133328
RightForeArm -16.748237 -0.000000 57.862091
RightHand 1.590039 -0.000000 -32.077973
RightHandThumb1 -24.326973 -0.000000 -32.862282
LeftUpLeg -0.333045 1.235535 1.558908
LeftLeg 8.579389 -0.000000 -0.000000
LeftFoot 41.328202 6.509697 -16.560324
LeftToeBase 37.319202 -0.000000 -0.000000
RightUpLeg -13.865658 1.450673 -6.384163
RightLeg 1.196172 -0.000000 -0.000000
RightFoot -8.854581 2.611009 -9.299112
RightToeBase -3.642288 -0.000000 0.000000
667
root -15.998931 33.363226 -2.552219 17.126685 -15.734115 11.617390
Spine -25.587858 11.933389 -11.619608
Head 15.357691 -1.119832 6.109260
LeftShoulder -15.303607 28.823016 9.371375
LeftArm 14.228759 28.475898 -76.069219
LeftForeArm 0.684349 -0.000000 28.293685
LeftHand -25.541388 -0.000000 -2.664054
LeftHandThumb1 -26.253704 0.000000 33.147579
RightShoulder -19.305314 5.707589 -17.730975
RightArm -14.693527 -29.162691 90.158600
RightForeArm -16.803905 -0.000000 57.882259
RightHand 1.546422 -0.000000 -32.145863
RightHandThumb1 -24.326973 -0.000000 -32.862282
LeftUpLeg -0.366881 1.180039 1.610638
LeftLeg 8.534179 -0.000000 -0.000000
LeftFoot 41.376444 6.482680 -16.623700
LeftToeBase 37.176843 -0.000000 -0.000000
RightUpLeg -13.885299 1.411588 -6.333358
RightLeg 1.132222 -0.000000 -0.000000
RightFoot -8.825843 2.606086 -9.311188
RightToeBase -3.596160 -0.000000 0.000000
668
root -15.997572 33.362110 -2.556486 17.157281 -15.663584 11.612115
Spine -25.630535 11.924752 -11.601383
Head 15.312328 -1.146941 6.081050
LeftShoulder -15.285148 28.788860 9.379131
LeftArm 14.239348 28.399024 -76.082761
LeftForeArm 0.706124 -0.000000 28.090495
LeftHand -25.530263 -0.000000 -2.770031
LeftHandThumb1 -26.253704 0.000000 33.147579
RightShoulder -19.278970 5.685873 -17.739127
RightArm -14.723408 -28.985711 90.181619
RightForeArm -16.816003 -0.000000 57.882414
RightHand 1.507179 -0.000000 -32.188484
RightHandThumb1 -24.326973 -0.000000 -32.862282
LeftUpLeg -0.397457 1.162663 1.631537
LeftLeg 8.517667 -0.000000 -0.000000
LeftFoot 41.428747 6.435596 -16.583055
LeftToeBase 36.865666 -0.000000 -0.000000
RightUpLeg -13.877970 1.314594 -6.303271
RightLeg 1.068760 -0.000000 -0.000000
RightFoot -8.810856 2.643102 -9.309269
RightToeBase -3.575832 -0.000000 0.000000
669
root -15.994770 33.362062 -2.563998 17.203899 -15.594969 11.607247
Spine -25.680362 11.924124 -11.588219
Head 15.260531 -1.161382 6.068163
LeftShoulder -15.262419 28.744867 9.402083
LeftArm 14.260347 28.359706 -76.091302
LeftForeArm 0.741088 -0.000000 27.923316
LeftHand -25.539254 -0.000000 -2.926003
LeftHandThumb1 -26.253704 0.000000 33.147579
RightShoulder -19.254771 5.694545 -17.770364
RightArm -14.777267 -28.836627 90.214799
RightForeArm -16.835331 -0.000000 57.866683
RightHand 1.508064 -0.000000 -32.250981
RightHandThumb1 -24.326973 -0.000000 -32.862282
LeftUpLeg -0.471657 1.175017 1.649485
LeftLeg 8.538384 -0.000000 -0.000000
LeftFoot 41.413285 6.456497 -16.483300
LeftToeBase 36.526159 -0.000000 -0.000000
RightUpLeg -13.895843 1.253752 -6.284401
RightLeg 1.010739 -0.000000 -0.000000
RightFoot -8.782002 2.652315 -9.296285
RightToeBase -3.570609 -0.000000 0.000000
670
root -15.993697 33.361228 -2.567166 17.202467 -15.536503 11.595600
Spine -25.678709 11.954864 -11.566424
Head 15.227966 -1.216140 6.071631
LeftShoulder -15.237719 28.711620 9.424571
LeftArm 14.316594 28.380821 -76.058174
LeftForeArm 0.765521 -0.000000 27.799985
LeftHand -25.587092 -0.000000 -3.006183
LeftHandThumb1 -26.253704 0.000000 33.147579
RightShoulder -19.229203 5.696324 -17.785724
RightArm -14.815884 -28.693158 90.224691
RightForeArm -16.842955 -0.000000 57.861615
RightHand 1.466774 -0.000000 -32.317811
RightHandThumb1 -24.326973 -0.000000 -32.862282
LeftUpLeg -0.488987 1.262643 1.670188
LeftLeg 8.538065 -0.000000 -0.000000
LeftFoot 41.457615 6.403339 -16.362874
LeftToeBase 36.576016 -0.000000 -0.000000
RightUpLeg -13.857640 1.210158 -6.258582
RightLeg 0.955280 -0.000000 -0.000000
RightFoot -8.758808 2.645516 -9.305973
RightToeBase -3.562423 -0.000000 0.000000
671
root -15.992745 33.360294 -2.572267 17.204427 -15.466707 11.580986
Spine -25.665974 11.966054 -11.530525
Head 15.142326 -1.231393 6.028473
LeftShoulder -15.218680 28.686022 9.446062
LeftArm 14.372258 28.397179 -76.024202
LeftForeArm 0.764147 -0.000000 27.720494
LeftHand -25.600170 -0.000000 -3.127418
LeftHandThumb1 -26.253704 0.000000 33.147579
RightShoulder -19.205312 5.712169 -17.812781
RightArm -14.835316 -28.615305 90.226640
RightForeArm -16.837377 -0.000000 57.837554
RightHand 1.404836 0.000000 -32.384332
RightHandThumb1 -24.326973 -0.000000 -32.862282
LeftUpLeg -0.523453 1.331590 1.695183
LeftLeg 8.534617 -0.000000 -0.000000
LeftFoot 41.525278 6.361805 -16.252228
LeftToeBase 37.106476 -0.000000 -0.000000
RightUpLeg -13.829469 1.162116 -6.224357
RightLeg 0.908912 -0.000000 -0.000000
RightFoot -8.735475 2.632918 -9.305580
RightToeBase -3.562774 -0.000000 0.000000
672
root -15.990634 33.360076 -2.578142 17.206418 -15.396510 11.570791
Spine -25.646891 11.972122 -11.493819
Head 15.079532 -1.226157 5.981565
LeftShoulder -15.209099 28.658065 9.453763
LeftArm 14.427336 28.453124 -75.962668
LeftForeArm 0.781759 -0.000000 27.690204
LeftHand -25.581495 -0.000000 -3.195122
LeftHandThumb1 -26.253704 0.000000 33.147579
RightShoulder -19.173582 5.744064 -17.843874
RightArm -14.855684 -28.539514 90.221467
RightForeArm -16.857902 -0.000000 57.801859
RightHand 1.377525 0.000000 -32.426812
RightHandThumb1 -24.326973 -0.000000 -32.862282
LeftUpLeg -0.578055 1.413272 1.713959
LeftLeg 8.553981 -0.000000 -0.000000
LeftFoot 41.579175 6.339608 -16.130388
LeftToeBase 37.666479 -0.000000 -0.000000
RightUpLeg -13.818129 1.138216 -6.205036
RightLeg 0.893547 -0.000000 -0.000000
RightFoot -8.724323 2.587341 -9.305052
RightToeBase -3.571785 -0.000000 0.000000
